<?xml version="1.0" encoding="UTF-8"?>
<svg id="Capa_1" data-name="Capa 1" xmlns="http://www.w3.org/2000/svg" viewBox="0 0 467.95 124.03">
  <defs>
    <style>
      .cls-1 {
        stroke-linecap: round;
        stroke-linejoin: round;
      }

      .cls-1, .cls-2 {
        fill: none;
        stroke: #35bcaf;
      }

      .cls-2 {
        stroke-miterlimit: 10;
      }
    </style>
  </defs>
  <g>
    <path class="cls-2" d="m18.94,15.76c.29-2.71,1-4.64,2.12-5.79,1.12-1.15,2.94-1.72,5.48-1.72,2.89,0,4.86.97,5.92,2.92,1.06,1.94,1.59,5.11,1.59,9.5s-.83,7.69-2.5,9.63c-1.66,1.94-4.01,2.92-7.05,2.92-1.47,0-2.74-.18-3.8-.55-1.06-.37-2-.77-2.83-1.19s-1.59-.82-2.3-1.19c-.71-.37-1.46-.55-2.25-.55-.65,0-1.13.1-1.46.31-.32.21-.49.5-.49.88,0,.24.02.47.07.71s.07.41.07.53c0,.29-.1.51-.29.64-.19.13-.44.2-.73.2s-.54-.08-.73-.24-.29-.36-.29-.6c0-.12.02-.6.07-1.44.04-.84.08-1.9.11-3.18.03-1.28.07-2.74.11-4.4.04-1.65.07-3.34.07-5.08s0-3.37-.02-5.17c-.01-1.8-.05-3.62-.11-5.48-.03-.77-.11-1.33-.24-1.68s-.42-.53-.86-.53c-.12,0-.31.02-.57.04-.27.03-.46.04-.57.04-.29,0-.51-.07-.64-.2s-.2-.39-.2-.77c0-.32.09-.56.27-.71.18-.15.4-.22.66-.22,2.41,0,4.42-.21,6.03-.62,1.6-.41,3.1-.62,4.48-.62.53,0,.88.13,1.06.4s.27.66.27,1.19c0,.68-.09,1.47-.27,2.36-.18.9-.38,1.86-.6,2.89-.22,1.03-.42,2.11-.6,3.25s-.27,2.26-.27,3.38c0,.21.05.37.15.49.1.12.26.18.46.18.24,0,.4-.05.49-.15.09-.1.15-.23.18-.38Zm2.74,15.24c.53,0,.98-.13,1.35-.4.37-.27.65-.79.86-1.57.21-.78.36-1.89.46-3.33.1-1.44.15-3.33.15-5.65s-.15-3.84-.46-4.73c-.31-.88-.89-1.33-1.74-1.33-.91,0-1.63.49-2.16,1.46-.53.97-.8,2.59-.8,4.86v6.1c0,1.44.16,2.57.49,3.38.32.81.94,1.22,1.86,1.22Z"/>
    <path class="cls-2" d="m59.54,22.69c0,3.86-.83,6.64-2.5,8.35-1.66,1.71-4.51,2.56-8.55,2.56-1.62,0-3.17-.19-4.66-.57-1.49-.38-2.79-1.04-3.91-1.97-1.12-.93-2.02-2.17-2.7-3.73-.68-1.56-1.02-3.52-1.02-5.87s.32-4.48.95-6.18c.63-1.71,1.5-3.08,2.61-4.11s2.43-1.78,3.98-2.25c1.55-.47,3.22-.71,5.01-.71,2.03,0,3.72.22,5.08.66,1.35.44,2.44,1.03,3.25,1.77.81.74,1.38,1.61,1.72,2.61.34,1,.51,2.06.51,3.18,0,.82-.12,1.58-.35,2.25-.24.68-.68,1.25-1.35,1.72-.66.47-1.59.84-2.78,1.1-1.19.27-2.73.4-4.62.4-1.36,0-2.39.13-3.09.38-.71.25-1.06.76-1.06,1.52,0,.91.43,1.63,1.3,2.14.87.52,2.21.77,4.04.77.88,0,1.74-.07,2.56-.22.82-.15,1.54-.38,2.14-.68s1.09-.72,1.46-1.24c.37-.51.55-1.14.55-1.88,0-.29.07-.51.22-.64.15-.13.31-.2.49-.2.21,0,.38.07.51.2s.2.35.2.64Zm-10.73-12.63c-1.15,0-1.96.58-2.43,1.75s-.71,3.01-.71,5.54c0,.47.01.9.04,1.28.03.38.06.68.09.88.09.35.25.59.49.71.24.12.5.18.8.18s.68-.07,1.15-.22c.47-.15.91-.46,1.33-.93.41-.47.77-1.14,1.08-2.01.31-.87.46-2.02.46-3.47,0-1.24-.18-2.16-.53-2.78-.35-.62-.94-.93-1.77-.93Z"/>
  </g>
  <path class="cls-2" d="m66.45,93.45c0,4.27.09,7.62.27,10.08.18,2.45.27,4.14.27,5.07,0,.71-.23,1.26-.69,1.65-.46.39-1.05.59-1.76.59-.57,0-1.1-.2-1.6-.59-.5-.39-.75-.94-.75-1.65,0-.28.03-.69.11-1.23.07-.53.11-1.15.11-1.87,0-.92-.39-1.62-1.17-2.08-.78-.46-1.92-.69-3.41-.69-2.42,0-4.51.43-6.29,1.28-1.78.85-3.64,1.81-5.6,2.88-1.96,1.07-4.27,2.03-6.93,2.88-2.67.85-6.02,1.28-10.08,1.28-3.63,0-7.07-.46-10.34-1.39-3.27-.92-6.15-2.58-8.64-4.96-2.49-2.38-4.46-5.69-5.92-9.92-1.46-4.23-2.19-9.61-2.19-16.16,0-12.01,2.75-21.34,8.26-27.99,5.51-6.65,13.84-9.97,25.01-9.97,3.34,0,6.22.36,8.64,1.07,2.42.71,4.55,1.51,6.4,2.4,1.85.89,3.52,1.69,5.01,2.4,1.49.71,3.02,1.07,4.59,1.07.78,0,1.51-.19,2.19-.59.67-.39,1.01-1.05,1.01-1.97,0-.5-.05-1-.16-1.49-.11-.5-.16-.82-.16-.96,0-.78.19-1.35.59-1.71.39-.35.94-.53,1.65-.53.57,0,1.07.18,1.49.53.43.36.64.93.64,1.71,0,1.35-.09,3.4-.27,6.13-.18,2.74-.3,5.32-.37,7.73-.07,1.56-.05,3.2.05,4.91.11,1.71.16,3.13.16,4.27s-.2,2.06-.59,2.77c-.39.71-1.37,1.1-2.93,1.17-5.76,0-10.18-1.53-13.28-4.59-3.09-3.06-5.53-6.68-7.3-10.88-1.21-2.99-2.35-5.26-3.41-6.82-1.07-1.56-2.6-2.35-4.59-2.35-2.42,0-4.25,2.1-5.49,6.29-1.24,4.2-1.87,11.66-1.87,22.39s.6,18.22,1.81,23.09c1.21,4.87,3.52,7.3,6.93,7.3,2.63,0,4.78-1.1,6.45-3.31,1.67-2.2,2.51-5.97,2.51-11.3,0-4.19-.34-7-1.01-8.42-.68-1.42-1.83-2.13-3.47-2.13-.43,0-1.19.07-2.29.21-1.1.14-1.87.21-2.29.21-.78,0-1.33-.28-1.65-.85-.32-.57-.48-1.1-.48-1.6,0-.57.2-1.1.59-1.6.39-.5.94-.75,1.65-.75,2.42,0,5.51.11,9.28.32,3.77.21,7.32.32,10.66.32,1.56,0,3.23-.03,5.01-.11,1.78-.07,3.5-.12,5.17-.16,1.67-.03,3.16-.09,4.48-.16,1.31-.07,2.26-.11,2.83-.11.43,0,.83.18,1.23.53.39.36.59.89.59,1.6s-.16,1.26-.48,1.65c-.32.39-.76.59-1.33.59-.28,0-.62-.02-1.01-.05-.39-.03-.73-.05-1.01-.05-1,0-1.8.16-2.4.48-.6.32-1.08,1-1.44,2.03-.36,1.03-.6,2.52-.75,4.48-.14,1.96-.21,4.5-.21,7.62Z"/>
  <path class="cls-2" d="m79.99,98.89c.14-3.2.25-6.36.32-9.49.07-3.13.11-6.18.11-9.17,0-3.63-.04-7.07-.11-10.34-.07-3.27-.18-6.29-.32-9.06-.07-2.2-.23-3.63-.48-4.26-.25-.64-.8-.96-1.65-.96-.5,0-.89.02-1.17.05-.28.04-.53.05-.75.05-.85,0-1.4-.23-1.65-.69-.25-.46-.37-.94-.37-1.44,0-.57.13-1.08.37-1.55.25-.46.8-.69,1.65-.69,1.63,0,3.38.05,5.23.16,1.85.11,3.8.16,5.86.16,1.63,0,3.23-.09,4.8-.27,1.56-.18,3.23-.27,5.01-.27,1.35,0,2.2.37,2.56,1.12.35.75.53,1.65.53,2.72,0,3.34-.25,6.47-.75,9.38-.5,2.92-.75,6.11-.75,9.6,0,1,.14,1.71.43,2.13.28.43.64.64,1.07.64.5,0,.87-.27,1.12-.8.25-.53.52-1.87.8-4,.71-7.18,2.2-12.58,4.48-16.21,2.27-3.63,5.33-5.44,9.17-5.44,2.63,0,4.83,1,6.61,2.99,1.78,1.99,2.67,5.69,2.67,11.09,0,2.28-.14,4.43-.43,6.45-.29,2.03-.75,3.8-1.39,5.33-.64,1.53-1.51,2.74-2.61,3.63-1.1.89-2.47,1.33-4.11,1.33-1.99,0-3.57-.5-4.74-1.49-1.17-.99-2.04-2.38-2.61-4.16-.36-.92-.68-1.67-.96-2.24-.28-.57-.78-.85-1.49-.85-1,0-1.9,1.42-2.72,4.27-.82,2.84-1.23,7.89-1.23,15.14,0,2.92.09,5.26.27,7.04.18,1.78.53,3.13,1.07,4.05.53.92,1.3,1.55,2.29,1.87.99.32,2.27.48,3.84.48,1.14,0,2.11-.07,2.93-.21.82-.14,1.44-.21,1.87-.21.71,0,1.3.18,1.76.53.46.36.69.96.69,1.81,0,.57-.23,1.12-.69,1.65-.46.53-1.05.8-1.76.8-1,0-2.51-.02-4.53-.05-2.03-.04-4.21-.07-6.56-.11-2.35-.04-4.73-.07-7.14-.11-2.42-.03-4.48-.05-6.18-.05-2.49,0-4.91.02-7.25.05-2.35.04-4.55.09-6.61.16-.71,0-1.21-.25-1.49-.75-.28-.5-.43-.99-.43-1.49,0-.57.14-1.08.43-1.55.28-.46.78-.69,1.49-.69.07,0,.34.04.8.11.46.07.73.11.8.11.71,0,1.19-.69,1.44-2.08.25-1.39.41-2.79.48-4.21Z"/>
  <path class="cls-2" d="m157.62,50.26c5.19,0,9.4.46,12.64,1.39,3.23.92,5.74,2.24,7.52,3.95,1.78,1.71,2.97,3.77,3.57,6.18.6,2.42.91,5.08.91,8,0,2.06-.02,4.14-.05,6.24-.04,2.1-.09,4.05-.16,5.86-.07,1.81-.12,3.45-.16,4.91-.04,1.46-.05,2.54-.05,3.25,0,1.64.21,2.88.64,3.73.43.85,1.17,1.28,2.24,1.28s1.83-.41,2.29-1.23c.46-.82.69-1.87.69-3.15,0-1.14-.25-2.56-.75-4.26-.5-1.71-.75-3.06-.75-4.05,0-.71.18-1.3.53-1.76.35-.46.89-.69,1.6-.69,1.14,0,1.88.68,2.24,2.03.35,1.35.53,3.95.53,7.78,0,7.82-.98,13.24-2.93,16.26-1.96,3.02-5.7,4.53-11.25,4.53-2.63,0-4.74-.37-6.34-1.12-1.6-.75-2.84-1.72-3.73-2.93-.89-1.21-1.49-2.63-1.81-4.26-.32-1.64-.59-3.34-.8-5.12-.07-.71-.25-1.24-.53-1.6-.28-.35-.64-.53-1.07-.53-.5,0-.87.18-1.12.53-.25.36-.41.89-.48,1.6-.07,1.64-.48,3.27-1.23,4.9-.75,1.64-1.85,3.09-3.31,4.37-1.46,1.28-3.32,2.31-5.6,3.09-2.28.78-4.98,1.17-8.1,1.17-5.76,0-9.88-1.39-12.37-4.16-2.49-2.77-3.73-6.33-3.73-10.66,0-2.91.53-5.33,1.6-7.25,1.07-1.92,2.52-3.47,4.37-4.64,1.85-1.17,3.98-2.06,6.4-2.67,2.42-.6,4.98-1.05,7.68-1.33,3.34-.35,6.02-.85,8.05-1.49,2.03-.64,3.55-1.49,4.59-2.56,1.03-1.07,1.71-2.4,2.03-4,.32-1.6.48-3.54.48-5.81,0-4.26-1.14-7.18-3.41-8.74-2.28-1.56-5.51-2.35-9.7-2.35-1.49,0-2.45.21-2.88.64-.43.43-.64.92-.64,1.49,0,.36.18.73.53,1.12.35.39.89.62,1.6.69,2.27.36,3.96,1.26,5.07,2.72,1.1,1.46,1.65,3.32,1.65,5.6,0,3.48-1.23,6.02-3.68,7.62-2.45,1.6-5.56,2.4-9.33,2.4s-6.88-.85-9.12-2.56c-2.24-1.71-3.36-4.55-3.36-8.53,0-4.41,2.27-8.16,6.82-11.25,4.55-3.09,11.94-4.64,22.18-4.64Zm2.03,30.5c-2.92,0-5.58.82-8,2.45-2.42,1.64-3.63,3.77-3.63,6.4,0,1.99.55,3.36,1.65,4.1,1.1.75,2.36,1.12,3.79,1.12,2.42,0,4.5-.96,6.24-2.88,1.74-1.92,2.61-4.41,2.61-7.46,0-1.21-.2-2.13-.59-2.77-.39-.64-1.08-.96-2.08-.96Z"/>
  <path class="cls-2" d="m201.87,51.65c1.78,0,3.55-.05,5.33-.16,1.78-.11,3.55-.16,5.33-.16,1.42-.07,2.4.25,2.93.96.53.71.8,1.64.8,2.77,0,1.92-.14,3.88-.43,5.86-.29,1.99-.43,4.2-.43,6.61,0,.64.14,1.12.43,1.44.28.32.64.48,1.07.48s.8-.18,1.12-.53c.32-.35.51-.89.59-1.6.85-6.82,2.65-11.45,5.39-13.86,2.74-2.42,6.77-3.63,12.1-3.63,6.54,0,11.32,2.19,14.34,6.56,3.02,4.37,4.53,12.21,4.53,23.51,0,9.67-1.85,17.08-5.55,22.23-3.7,5.15-9.99,7.73-18.87,7.73-2.35,0-4.12-.16-5.33-.48-1.21-.32-2.27-.48-3.2-.48-1,0-1.76.29-2.29.85s-.8,1.53-.8,2.88c0,1.78.43,3.25,1.28,4.43.85,1.17,2.42,1.76,4.69,1.76,1.07,0,2.27-.05,3.63-.16,1.35-.11,2.27-.16,2.77-.16.71,0,1.24.21,1.6.64.35.43.53.96.53,1.6,0,.85-.21,1.46-.64,1.81-.43.35-.89.53-1.39.53-3.56-.07-7.59-.16-12.1-.27-4.51-.11-8.69-.16-12.53-.16-1.35,0-2.93.02-4.74.05-1.81.03-3.57.09-5.28.16-1.71.07-3.25.12-4.64.16-1.39.03-2.33.05-2.83.05s-.96-.21-1.39-.64c-.43-.43-.64-1-.64-1.71s.21-1.24.64-1.6c.43-.36.89-.53,1.39-.53.29,0,.75.04,1.39.11.64.07,1.1.11,1.39.11,1.56,0,2.61-.41,3.15-1.23.53-.82.83-1.97.91-3.47.07-3.06.14-6.57.21-10.56.07-3.98.11-8.17.11-12.58v-15.3c0-5.22-.07-10.18-.21-14.88-.07-2.2-.25-3.63-.53-4.26-.29-.64-.89-.96-1.81-.96-.5,0-.89.02-1.17.05-.28.04-.53.05-.75.05-.85,0-1.4-.23-1.65-.69-.25-.46-.37-.94-.37-1.44,0-.57.12-1.08.37-1.55.25-.46.8-.69,1.65-.69,1.49,0,3.06.05,4.69.16,1.63.11,3.38.16,5.22.16Zm17.38,36.58c0,6.26.48,10.42,1.44,12.48.96,2.06,2.61,3.09,4.96,3.09,1.99,0,3.54-1.31,4.64-3.95,1.1-2.63,1.65-7.5,1.65-14.61,0-4.34-.11-7.91-.32-10.72-.21-2.81-.55-5.03-1.01-6.67-.46-1.63-1.05-2.75-1.76-3.36-.71-.6-1.56-.91-2.56-.91-1.07,0-2.04.39-2.93,1.17-.89.78-1.64,2.12-2.24,4-.6,1.88-1.07,4.41-1.39,7.57-.32,3.16-.48,7.13-.48,11.89Z"/>
  <path class="cls-2" d="m286.22,100.16c.07,1.78.32,3.06.75,3.84.43.78,1.1,1.17,2.03,1.17.28,0,.69-.02,1.23-.05.53-.03.87-.05,1.01-.05.64,0,1.14.23,1.49.69.35.46.53.94.53,1.44s-.18,1-.53,1.49c-.36.5-.85.75-1.49.75-1.99-.07-4.59-.12-7.78-.16-3.2-.03-6.33-.05-9.38-.05-2.42,0-5.03.04-7.84.11-2.81.07-5.06.11-6.77.11-.64,0-1.1-.25-1.39-.75-.28-.5-.43-.99-.43-1.49s.14-.98.43-1.44c.28-.46.75-.69,1.39-.69.07,0,.34.02.8.05.46.04.76.05.91.05.78,0,1.28-.48,1.49-1.44.21-.96.35-2.15.43-3.57.07-4.48.14-8.78.21-12.9.07-4.12.11-8.1.11-11.94,0-4.69-.05-9.33-.16-13.92-.11-4.59-.23-9.22-.37-13.92-.07-1.92-.27-3.23-.59-3.95-.32-.71-1.05-1.07-2.19-1.07-.28,0-.71.04-1.28.11-.57.07-1,.11-1.28.11-.71,0-1.23-.19-1.55-.59-.32-.39-.48-.94-.48-1.65,0-.64.2-1.19.59-1.65.39-.46.94-.69,1.65-.69,5.61,0,10.49-.5,14.61-1.49,4.12-.99,7.61-1.49,10.45-1.49,1.42,0,2.36.3,2.83.91.46.6.69,1.62.69,3.04,0,1.49-.21,3.29-.64,5.39-.43,2.1-.89,4.36-1.39,6.77-.5,2.42-.96,5-1.39,7.73-.43,2.74-.64,5.49-.64,8.26,0,.5.14.87.43,1.12.28.25.67.37,1.17.37.35,0,.66-.14.91-.43.25-.28.41-.64.48-1.07.5-6.04,2.15-10.45,4.96-13.22,2.81-2.77,7.3-4.16,13.49-4.16,6.75,0,11.34,1.76,13.76,5.28,2.42,3.52,3.63,8.8,3.63,15.83,0,1.85-.05,4.05-.16,6.61-.11,2.56-.25,5.16-.43,7.78-.18,2.63-.32,5.15-.43,7.57-.11,2.42-.16,4.44-.16,6.08,0,2.06.27,3.63.8,4.69s1.47,1.6,2.83,1.6c.14,0,.39-.02.75-.05.35-.03.57-.05.64-.05.64,0,1.1.23,1.39.69.28.46.43.98.43,1.55,0,.5-.14.96-.43,1.39-.28.43-.75.64-1.39.64-1.78-.07-3.77-.18-5.97-.32-2.2-.14-4.41-.21-6.61-.21-1.56,0-3.18.07-4.85.21-1.67.14-3.4.25-5.17.32-1.99,0-3.34-.78-4.05-2.35-.71-1.56-1.07-4.19-1.07-7.89,0-2.35.05-4.85.16-7.52.11-2.67.19-5.3.27-7.89.07-2.59.16-5.08.27-7.46.11-2.38.16-4.46.16-6.24s-.36-3.36-1.07-4.53c-.71-1.17-1.88-1.76-3.52-1.76-1.99,0-3.56.87-4.69,2.61-1.14,1.74-1.85,5.17-2.13,10.29-.21,2.63-.36,5.44-.43,8.42-.07,2.99-.11,5.9-.11,8.74v3.31c0,1.07.03,2.06.11,2.99Z"/>
  <path class="cls-2" d="m423.38,76.6c0,6.82,1.51,11.91,4.53,15.25,3.02,3.34,7.52,5.01,13.49,5.01,4.26,0,7.23-.66,8.9-1.97,1.67-1.31,2.51-2.65,2.51-4,0-.78-.09-1.56-.27-2.35-.18-.78-.27-1.42-.27-1.92,0-.64.16-1.21.48-1.71.32-.5.94-.75,1.87-.75s1.58.28,1.97.85c.39.57.59,1.42.59,2.56,0,3.48-.41,6.66-1.23,9.54-.82,2.88-2.2,5.35-4.16,7.41-1.96,2.06-4.59,3.66-7.89,4.8-3.31,1.14-7.41,1.71-12.32,1.71-4.27,0-8.28-.43-12.05-1.28-3.77-.85-7.02-2.42-9.76-4.69-2.74-2.27-4.89-5.44-6.45-9.49-1.56-4.05-2.35-9.28-2.35-15.67,0-10.73,2.63-18.45,7.89-23.14,5.26-4.69,13.01-7.04,23.25-7.04,4.83,0,8.87.48,12.1,1.44,3.23.96,5.83,2.24,7.78,3.84,1.95,1.6,3.34,3.5,4.16,5.71.82,2.2,1.23,4.55,1.23,7.04,0,1.78-.23,3.54-.69,5.28-.46,1.74-1.17,3.31-2.13,4.69-.96,1.39-2.22,2.49-3.79,3.31-1.56.82-3.45,1.23-5.65,1.23-4.19,0-7.23-.99-9.12-2.99-1.88-1.99-2.83-4.48-2.83-7.46,0-3.2.71-5.67,2.13-7.41,1.42-1.74,3.06-3.11,4.91-4.11.92-.5,1.65-1.03,2.19-1.6.53-.57.8-1.17.8-1.81,0-.78-.52-1.44-1.55-1.97-1.03-.53-2.76-.8-5.17-.8-1.56,0-3.15.25-4.75.75-1.6.5-3,1.53-4.21,3.09-1.21,1.56-2.2,3.84-2.99,6.82-.78,2.99-1.17,6.93-1.17,11.84Z"/>
  <path class="cls-2" d="m361.08,46.54c-1.25,12.7-7.28,28.58-19.57,33.03h0c11.21,4.47,14.61,10.96,15.64,16.21h7.85c1.03-5.25,4.43-11.74,15.64-16.21h0c-12.28-4.45-18.31-20.34-19.56-33.03Z"/>
  <rect class="cls-2" x="357.16" y="95.78" width="7.85" height="12.48"/>
  <line class="cls-1" x1="361.08" y1="60.08" x2="361.08" y2="73.62"/>
  <path class="cls-1" d="m363.67,76.71c0,1.43-1.16,2.59-2.59,2.59-1.43,0-2.59-1.16-2.59-2.59,0-1.43,1.16-2.59,2.59-2.59s2.59,1.16,2.59,2.59Z"/>
  <circle class="cls-2" cx="396.49" cy="33.99" r="2.59"/>
  <circle class="cls-2" cx="325.67" cy="33.99" r="2.59"/>
  <path class="cls-2" d="m328.26,66.81c0-18.13,14.69-32.82,32.82-32.82s32.82,14.69,32.82,32.82"/>
  <line class="cls-2" x1="328.26" y1="33.99" x2="393.9" y2="33.99"/>
  <rect class="cls-2" x="358.49" y="31.41" width="5.17" height="5.17"/>
  <rect class="cls-2" x="325.67" y="66.81" width="5.17" height="5.17"/>
  <rect class="cls-2" x="391.32" y="66.81" width="5.17" height="5.17"/>
</svg>