<?xml version="1.0" encoding="UTF-8"?><svg id="a" xmlns="http://www.w3.org/2000/svg" viewBox="0 0 149.18 76.91"><path d="M69.14,43.62c0,4.87-.46,9.38-1.39,13.51-.93,4.14-2.55,7.66-4.87,10.56-2.32,2.9-5.51,5.16-9.57,6.79s-9.18,2.44-15.37,2.44c-4.95,0-9.73-.48-14.33-1.45-4.6-.97-8.64-2.8-12.12-5.51-3.48-2.71-6.26-6.51-8.35-11.43-2.09-4.91-3.13-11.27-3.13-19.08,0-5.88,.75-11.23,2.26-16.07,1.51-4.83,3.71-8.95,6.61-12.35,2.9-3.4,6.48-6.03,10.73-7.89C23.86,1.28,28.73,.35,34.22,.35c3.79,0,7.02,.39,9.69,1.16,2.67,.77,5.01,1.64,7.02,2.61,2.01,.97,3.85,1.84,5.51,2.61,1.66,.77,3.34,1.16,5.05,1.16,.85,0,1.58-.19,2.2-.58,.62-.39,.93-1.04,.93-1.97,0-.54-.04-1.1-.12-1.68-.08-.58-.12-.99-.12-1.22,0-.85,.21-1.47,.64-1.86,.42-.39,.99-.58,1.68-.58,.62,0,1.18,.19,1.68,.58,.5,.39,.75,1.01,.75,1.86,0,.39-.04,1.18-.12,2.38-.08,1.2-.17,2.55-.29,4.06-.12,1.51-.21,3.13-.29,4.87-.08,1.74-.12,3.31-.12,4.7-.08,2.17-.08,4.39,0,6.67,.08,2.28,.12,4.27,.12,5.97,0,1.32-.25,2.42-.75,3.31-.5,.89-1.68,1.37-3.54,1.45-6.42-.08-11.31-1.64-14.67-4.7-3.36-3.05-5.97-7.95-7.83-14.67-1.24-3.63-2.26-6.48-3.07-8.53-.81-2.05-2.34-3.07-4.58-3.07-2.63,0-4.66,1.84-6.09,5.51-1.43,3.67-2.15,9.53-2.15,17.57,0,9.59,1.64,17.03,4.93,22.33,3.29,5.3,9.34,7.95,18.15,7.95,4.72,0,8.47-.79,11.25-2.38,2.78-1.58,4.18-3.92,4.18-7.02,0-1.16-.12-2.22-.35-3.19-.23-.97-.35-1.72-.35-2.26,0-.77,.23-1.43,.7-1.97,.46-.54,1.16-.81,2.09-.81,.77,0,1.43,.23,1.97,.7,.54,.46,.81,1.24,.81,2.32Z"/><path d="M127.95,46.75c0-6.19-.45-11.33-1.33-15.43-.89-4.1-1.88-7.64-2.96-10.61-1.08-2.98-2.07-5.64-2.96-8-.89-2.36-1.33-4.93-1.33-7.71,0-.85,.19-1.55,.58-2.09,.39-.54,1-.81,1.86-.81,.77,0,2.11,.1,4,.29,1.89,.19,4.5,.29,7.83,.29,3.56,0,6.26-.1,8.12-.29,1.86-.19,3.4-.29,4.64-.29,.93,0,1.62,.19,2.09,.58,.46,.39,.7,1.08,.7,2.09,0,3.02-.74,6.32-2.2,9.92-1.47,3.6-3.21,7.87-5.22,12.82-2.01,4.95-4.1,10.85-6.26,17.69-2.17,6.84-3.98,14.98-5.45,24.42-.23,1.7-.5,3.06-.81,4.06-.31,1.01-1.2,1.51-2.67,1.51-.7,0-1.72-.04-3.07-.12-1.35-.08-2.82-.15-4.41-.23-1.59-.08-3.23-.15-4.93-.23-1.7-.08-3.25-.12-4.64-.12-3.71,0-7.12,.12-10.21,.35-3.09,.23-4.87,.35-5.34,.35-1.47,0-2.51-.42-3.13-1.28-.62-.85-1.01-2.16-1.16-3.94-.16-2.55-.68-6.51-1.57-11.89-.89-5.37-1.99-11.04-3.31-16.99-1.32-5.95-2.75-11.73-4.29-17.34-1.55-5.61-3.09-9.96-4.64-13.05-.85-1.7-1.74-2.92-2.67-3.65-.93-.73-1.39-1.57-1.39-2.49,0-.77,.21-1.37,.64-1.8,.43-.42,1.03-.64,1.8-.64,1.47,0,3.98,.1,7.54,.29,3.56,.19,7.42,.29,11.6,.29,1.39,0,3.11-.04,5.16-.12,2.05-.08,4.08-.13,6.09-.17,2.01-.04,3.77-.1,5.28-.17,1.51-.08,2.42-.12,2.73-.12,.77,0,1.37,.23,1.8,.7,.42,.46,.64,1.08,.64,1.86,0,.85-.21,1.47-.64,1.86-.43,.39-1.03,.58-1.8,.58-.39,0-.81-.06-1.28-.17-.46-.12-.97-.17-1.51-.17-.93,0-1.66,.46-2.2,1.39-.54,.93-.81,2.32-.81,4.18,0,3.94,.5,9.24,1.51,15.89,1,6.65,2.98,15.51,5.92,26.56,1.47,5.65,2.74,9.34,3.83,11.08,1.08,1.74,2.32,2.61,3.71,2.61,1.93,0,3.44-1.82,4.52-5.45,1.08-3.63,1.62-9.05,1.62-16.24Z"/></svg>