<?xml version="1.0" encoding="utf-8"?>
<!-- Generator: Adobe Illustrator 27.1.0, SVG Export Plug-In . SVG Version: 6.00 Build 0)  -->
<svg version="1.1" id="Capa_1" xmlns="http://www.w3.org/2000/svg" xmlns:xlink="http://www.w3.org/1999/xlink" x="0px" y="0px"
	 viewBox="0 0 466.7 466.7" style="enable-background:new 0 0 466.7 466.7;" xml:space="preserve">
<path d="M462.7,176.3c3.4-5.1,4.7-11.4,3.5-17.5c-1.2-6.1-4.8-11.4-9.9-14.8l-210-140c-3.8-2.6-8.3-3.9-12.9-3.9s-9.1,1.4-12.9,3.9
	l-210,140c-5.1,3.4-8.7,8.8-9.9,14.8c-1.2,6.1,0,12.4,3.5,17.5c3.4,5.1,8.8,8.7,14.8,9.9c6.1,1.2,12.4,0,17.5-3.5l10.4-6.9v267.5
	c0,6.2,2.5,12.1,6.8,16.5s10.3,6.8,16.5,6.8h326.7c6.2,0,12.1-2.5,16.5-6.8s6.8-10.3,6.8-16.5V175.8l10.4,7
	c5.1,3.4,11.4,4.7,17.5,3.5C454,185.1,459.3,181.5,462.7,176.3L462.7,176.3z M373.3,420h-280V144.7l140-93.3l140,93.3V420z"/>
</svg>
