<?xml version="1.0" encoding="utf-8"?>
<!-- Generator: Adobe Illustrator 27.1.0, SVG Export Plug-In . SVG Version: 6.00 Build 0)  -->
<svg version="1.1" id="Capa_1" xmlns="http://www.w3.org/2000/svg" xmlns:xlink="http://www.w3.org/1999/xlink" x="0px" y="0px"
	 viewBox="0 0 492.8 352.8" style="enable-background:new 0 0 492.8 352.8;" xml:space="preserve">
<g>
	<path d="M476,319.2H16.8C7.5,319.2,0,326.7,0,336c0,9.3,7.5,16.8,16.8,16.8H476c9.3,0,16.8-7.5,16.8-16.8S485.3,319.2,476,319.2
		L476,319.2z M476,162.4H16.8c-9.3,0-16.8,7.5-16.8,16.8c0,9.3,7.5,16.8,16.8,16.8H476c9.3,0,16.8-7.5,16.8-16.8
		S485.3,162.4,476,162.4L476,162.4z M16.8,33.6H476c9.3,0,16.8-7.5,16.8-16.8C492.8,7.5,485.3,0,476,0H16.8C7.5,0,0,7.5,0,16.8
		C0,26.1,7.5,33.6,16.8,33.6z"/>
</g>
</svg>
