<?xml version="1.0" encoding="UTF-8"?>
<svg id="Capa_1" data-name="Capa 1" xmlns="http://www.w3.org/2000/svg" viewBox="0 0 208.09 57.36">
  <defs>
    <style>
      .cls-1 {
        fill: #35bcaf;
      }
    </style>
  </defs>
  <path class="cls-1" d="m21.58,48.13c0,2.96-.85,5.24-2.54,6.83-1.69,1.6-4.39,2.4-8.1,2.4s-6.34-.8-8.03-2.4c-1.69-1.6-2.54-3.88-2.54-6.83,0-2.3.48-4.13,1.44-5.5.96-1.36,2.02-2.57,3.17-3.63,1.15-1.06,2.21-2.15,3.17-3.28.96-1.13,1.44-2.61,1.44-4.44,0-.47-.06-.86-.18-1.16s-.18-.62-.18-.95c0-.52.16-.92.49-1.2.33-.28.73-.42,1.2-.42.52,0,.94.14,1.27.42s.49.68.49,1.2c0,.33-.06.65-.18.95-.12.31-.18.69-.18,1.16,0,1.83.48,3.31,1.45,4.44.96,1.13,2.02,2.22,3.17,3.28,1.15,1.06,2.21,2.27,3.17,3.63s1.45,3.2,1.45,5.5h.02Zm-10.64-22.69c-2.82,0-5.08-.69-6.8-2.08s-2.57-3.3-2.57-5.74c0-2.25.8-4.03,2.4-5.32,1.6-1.29,3.92-1.94,6.98-1.94,3.38,0,5.8.65,7.26,1.94s2.18,3.07,2.18,5.32c0,2.44-.86,4.36-2.57,5.74s-4,2.08-6.87,2.08h-.01Z"/>
  <path class="cls-1" d="m52.44,49.47c-.42,0-.72-.13-.88-.39-.17-.26-.25-.6-.25-1.02,0-.38.08-.72.25-1.02.16-.31.46-.46.88-.46.94,0,1.54-.29,1.8-.88s.41-1.42.46-2.5c.09-1.93.16-3.96.21-6.09s.07-4.36.07-6.66c0-1.74-.27-2.81-.81-3.21-.54-.4-1.99-.6-4.33-.6s-3.78.21-4.3.63c-.52.42-.78,1.48-.78,3.17,0,2.3.02,4.52.07,6.66s.12,4.17.21,6.09c.05,1.08.2,1.92.46,2.5.26.59.86.88,1.8.88.42,0,.71.15.88.46.16.31.25.62.25.95,0,.47-.08.83-.25,1.09-.17.26-.46.39-.88.39-1.32,0-2.88-.02-4.69-.07-1.81-.05-3.65-.07-5.53-.07-2.16,0-4.36.02-6.59.07s-4.12.07-5.67.07c-.33,0-.62-.14-.88-.42-.26-.28-.39-.66-.39-1.13,0-.42.11-.79.32-1.09.21-.3.53-.46.95-.46.23,0,.52.04.85.11s.59.11.78.11c.89,0,1.47-.41,1.73-1.23s.41-1.89.46-3.21c.09-2.4.18-5.12.25-8.17s.11-6.13.11-9.23c0-2.16-.04-4.3-.11-6.41s-.15-4.09-.25-5.92c-.05-1.13-.18-2.15-.39-3.07s-.76-1.37-1.66-1.37c-.33,0-.65.04-.95.11-.31.07-.58.11-.81.11-.47,0-.8-.15-.99-.46-.19-.3-.28-.67-.28-1.09,0-.47.13-.85.39-1.13.26-.28.55-.42.88-.42,1.93,0,3.88.02,5.85.07s4.04.07,6.2.07c1.83,0,3.6-.02,5.32-.07s3.39-.07,5.04-.07c.42,0,.72.13.88.39s.25.6.25,1.02c0,.33-.08.66-.25.99s-.46.49-.88.49c-.94,0-1.53.34-1.76,1.02-.24.68-.38,1.47-.42,2.36-.09,1.41-.17,2.87-.21,4.37-.05,1.5-.07,3.05-.07,4.65s.25,2.5.74,2.85,1.94.53,4.33.53,3.97-.2,4.44-.6c.47-.4.7-1.33.7-2.78,0-1.6-.02-3.14-.07-4.62s-.12-2.95-.21-4.4c-.05-.89-.19-1.69-.42-2.4-.24-.71-.82-1.06-1.76-1.06-.42,0-.72-.15-.88-.46-.17-.31-.25-.62-.25-.95,0-.42.08-.76.25-1.02.16-.26.46-.39.88-.39,1.64,0,3.32.02,5.04.07,1.71.05,3.49.07,5.32.07,2.16,0,4.23-.02,6.2-.07,1.97-.05,3.92-.07,5.85-.07.33,0,.62.14.88.42.26.28.39.66.39,1.13,0,.42-.09.79-.28,1.09-.19.31-.52.46-.99.46-.24,0-.49-.04-.77-.11s-.59-.11-.92-.11c-.89,0-1.45.46-1.66,1.37-.21.92-.34,1.94-.39,3.07-.14,1.83-.24,3.8-.28,5.92-.05,2.11-.07,4.25-.07,6.41,0,3.1.04,6.18.11,9.23s.15,5.78.25,8.17c.05,1.32.19,2.38.42,3.21.23.82.8,1.23,1.69,1.23.19,0,.45-.04.77-.11.33-.07.61-.11.85-.11.47,0,.8.15.99.46.19.31.28.67.28,1.09,0,.47-.12.84-.35,1.13-.24.28-.54.42-.92.42-1.46,0-3.28-.02-5.46-.07s-4.31-.07-6.38-.07-3.9.02-5.78.07c-1.88.05-3.5.07-4.86.07l-.02.02Z"/>
  <path class="cls-1" d="m116.63,32.13c0,2.68-.35,5.12-1.06,7.33-.7,2.21-1.84,4.11-3.42,5.71-1.57,1.6-3.63,2.83-6.17,3.7-2.54.87-5.61,1.3-9.23,1.3-7.23,0-12.36-1.63-15.36-4.9-3.01-3.26-4.51-7.65-4.51-13.14,0-3.99.49-7.39,1.48-10.18.99-2.79,2.35-5.05,4.09-6.76,1.74-1.71,3.83-2.97,6.27-3.77,2.44-.8,5.12-1.2,8.03-1.2s5.59.41,8.03,1.23c2.44.82,4.54,2.11,6.31,3.88,1.76,1.76,3.12,4.03,4.09,6.8.96,2.77,1.44,6.11,1.44,10.01h0Zm-15.64-1.56c0-3.85-.09-6.94-.28-9.27s-.45-4.1-.78-5.32-.75-2.03-1.27-2.43-1.1-.6-1.76-.6c-.7,0-1.32.21-1.83.63-.52.42-.96,1.26-1.34,2.5-.38,1.25-.66,3.03-.84,5.35-.19,2.33-.28,5.37-.28,9.12,0,5.68.35,9.56,1.06,11.63.71,2.07,1.79,3.1,3.24,3.1.71,0,1.32-.21,1.83-.63.52-.42.94-1.17,1.27-2.25.33-1.08.58-2.58.74-4.51.16-1.93.25-4.37.25-7.33h-.01Z"/>
  <path class="cls-1" d="m119.52,49.47c-.38,0-.66-.15-.85-.46-.19-.3-.28-.62-.28-.95,0-.38.09-.72.28-1.02.19-.31.47-.46.85-.46.05,0,.18.01.39.04.21.02.43.04.67.04.56,0,.93-.3,1.09-.92.16-.61.27-1.5.32-2.68.05-2.91.09-5.81.14-8.7s.07-5.79.07-8.7c0-2.68-.02-5.4-.07-8.17-.05-2.77-.09-5.5-.14-8.17-.05-1.46-.18-2.51-.39-3.17s-.69-.99-1.45-.99c-.24,0-.58.04-1.02.11s-.76.11-.95.11c-.38,0-.67-.13-.88-.39s-.32-.62-.32-1.09c0-.56.13-.96.39-1.2.26-.23.58-.35.95-.35,3.99,0,7.35-.33,10.08-.99,2.72-.66,5.19-.99,7.4-.99.75,0,1.26.19,1.51.56.26.38.39.89.39,1.55,0,1.5-.09,4.27-.28,8.31-.19,4.04-.28,8.97-.28,14.8v4.93c0,1.74,0,3.43.04,5.07.02,1.65.05,3.21.07,4.69s.06,2.74.11,3.77c.05.89.15,1.55.32,1.97.16.42.48.63.95.63.19,0,.39-.02.6-.07s.36-.07.46-.07c.33,0,.63.13.92.39.28.26.42.62.42,1.09,0,.42-.11.77-.32,1.06-.21.28-.55.42-1.02.42-.42,0-1.06-.01-1.9-.04-.85-.02-1.79-.04-2.82-.04s-2.09-.01-3.17-.04c-1.08-.02-2.07-.04-2.96-.04-2.02,0-3.92.02-5.71.07s-2.98.07-3.59.07l-.02.02Z"/>
  <path class="cls-1" d="m162.71,10.36c3.43,0,6.21.31,8.35.92s3.79,1.48,4.97,2.61c1.17,1.13,1.96,2.49,2.36,4.09s.6,3.36.6,5.28c0,1.36,0,2.74-.04,4.12-.02,1.39-.06,2.68-.11,3.88s-.08,2.28-.11,3.24c-.02.96-.04,1.68-.04,2.15,0,1.08.14,1.9.42,2.47.28.56.78.85,1.48.85s1.21-.27,1.51-.81c.3-.54.46-1.23.46-2.08,0-.75-.17-1.69-.49-2.82-.33-1.13-.49-2.02-.49-2.68,0-.47.12-.86.35-1.16.23-.3.59-.46,1.06-.46.75,0,1.24.45,1.48,1.34.23.89.35,2.61.35,5.14,0,5.17-.65,8.75-1.94,10.75-1.29,2-3.77,3-7.43,3-1.74,0-3.14-.25-4.19-.74s-1.88-1.14-2.47-1.94-.99-1.74-1.2-2.82c-.21-1.08-.39-2.21-.53-3.38-.05-.47-.17-.82-.35-1.06-.19-.23-.42-.35-.7-.35-.33,0-.58.12-.74.35-.17.24-.27.59-.32,1.06-.05,1.08-.32,2.16-.81,3.24-.49,1.08-1.22,2.04-2.18,2.89-.96.84-2.2,1.53-3.7,2.04-1.5.52-3.29.78-5.35.78-3.81,0-6.53-.92-8.17-2.75-1.65-1.83-2.47-4.18-2.47-7.05,0-1.93.35-3.52,1.06-4.79.7-1.27,1.67-2.29,2.89-3.07s2.63-1.36,4.23-1.76,3.29-.69,5.07-.88c2.21-.23,3.98-.56,5.32-.99s2.35-.99,3.03-1.69c.68-.7,1.13-1.58,1.34-2.64.21-1.06.32-2.34.32-3.84,0-2.82-.75-4.74-2.25-5.78-1.5-1.03-3.64-1.55-6.41-1.55-.99,0-1.62.14-1.9.42s-.42.61-.42.99c0,.24.12.48.35.74.23.26.59.41,1.06.46,1.5.24,2.62.83,3.35,1.8.73.96,1.09,2.2,1.09,3.7,0,2.3-.81,3.98-2.43,5.04s-3.68,1.58-6.17,1.58-4.54-.56-6.02-1.69c-1.48-1.13-2.22-3.01-2.22-5.64,0-2.91,1.5-5.39,4.51-7.43s7.89-3.07,14.66-3.07h-.02Zm1.34,20.14c-1.93,0-3.69.54-5.28,1.62-1.6,1.08-2.4,2.49-2.4,4.23,0,1.32.36,2.22,1.09,2.71.73.49,1.56.74,2.5.74,1.6,0,2.97-.63,4.12-1.9s1.73-2.91,1.73-4.93c0-.8-.13-1.41-.39-1.83-.26-.42-.72-.63-1.37-.63h0Z"/>
  <path class="cls-1" d="m186.88,12.12c0-2.96.85-5.24,2.54-6.83,1.69-1.6,4.37-2.4,8.03-2.4s6.41.8,8.1,2.4,2.54,3.88,2.54,6.83c0,2.3-.48,4.13-1.45,5.5-.96,1.36-2.02,2.57-3.17,3.63s-2.21,2.15-3.17,3.28c-.96,1.13-1.45,2.61-1.45,4.44,0,.47.06.86.18,1.16.12.31.18.62.18.95,0,.52-.17.92-.49,1.2-.33.28-.75.42-1.27.42-.47,0-.87-.14-1.2-.42s-.49-.68-.49-1.2c0-.33.06-.65.18-.95s.18-.69.18-1.16c0-1.83-.48-3.31-1.44-4.44-.96-1.13-2.02-2.22-3.17-3.28-1.15-1.06-2.21-2.27-3.17-3.63-.96-1.36-1.44-3.19-1.44-5.5h-.02Zm10.57,22.69c2.82,0,5.1.69,6.83,2.08,1.74,1.39,2.61,3.3,2.61,5.74,0,2.25-.8,4.03-2.4,5.32-1.6,1.29-3.95,1.94-7.05,1.94-3.38,0-5.8-.65-7.26-1.94s-2.18-3.07-2.18-5.32c0-2.44.87-4.36,2.61-5.74,1.74-1.38,4.02-2.08,6.83-2.08h0Z"/>
</svg>