<?xml version="1.0" encoding="UTF-8"?>
<svg id="Capa_1" data-name="Capa 1" xmlns="http://www.w3.org/2000/svg" viewBox="0 0 343.07 83.5">
  <defs>
    <style>
      .cls-1 {
        fill: #ffb2aa;
      }

      .cls-2 {
        fill: #f4b645;
      }

      .cls-3 {
        fill: #35bcaf;
      }

      .cls-4 {
        fill: #ef7742;
      }

      .cls-5 {
        fill: #f4d0c2;
      }
    </style>
  </defs>
  <path class="cls-3" d="m48.29,17.05c-.66,0-1.49-.09-2.49-.28-1-.18-2.12-.28-3.38-.28-3.54,0-5.78,1.11-6.7,3.32-.92,2.21-1.5,4.65-1.72,7.31-.22,3.25-.37,6.83-.44,10.74s-.09,7.81-.06,11.68c.04,3.88.09,7.62.17,11.24.07,3.62.18,6.79.33,9.52.07,2.51.4,4.3,1,5.37.59,1.07,1.62,1.61,3.1,1.61,2.29,0,4.1-1.9,5.43-5.7,1.33-3.8,2.68-7.99,4.04-12.57,1.37-4.58,2.97-8.77,4.82-12.57,1.84-3.8,4.36-5.7,7.53-5.7.74,0,1.31.2,1.72.61.41.41.61,1.02.61,1.83,0,1.33-.11,3.89-.33,7.7-.22,3.8-.33,7.77-.33,11.91,0,3.84.11,7.13.33,9.86.22,2.73.33,4.91.33,6.53,0,.74-.31,1.37-.94,1.88-.63.52-1.2.78-1.72.78-1.62,0-3.92-.02-6.87-.06s-6.17-.05-9.63-.05-7.07-.02-10.8-.06-7.18-.06-10.35-.06c-1.62,0-3.42.02-5.37.06-1.96.04-3.86.06-5.7.06s-3.54.02-5.09.05c-1.55.04-2.73.06-3.54.06-.74,0-1.26-.28-1.55-.83-.3-.55-.44-1.09-.44-1.61,0-.66.2-1.22.61-1.66.4-.44.87-.66,1.38-.66.37,0,.81.05,1.33.17.52.11.89.17,1.11.17,1.4,0,2.33-.54,2.77-1.61.44-1.07.7-2.9.78-5.48.07-2.95.17-6.38.28-10.3.11-3.91.17-7.96.17-12.13s-.02-8.36-.05-12.57c-.04-4.21-.17-8.12-.39-11.74-.07-1.77-.28-3.39-.61-4.87-.33-1.48-1.2-2.21-2.6-2.21-.52,0-1.02.05-1.5.17-.48.11-.91.17-1.27.17-.74,0-1.26-.26-1.55-.78-.3-.52-.44-1.03-.44-1.55,0-.74.2-1.33.61-1.77.4-.44.87-.67,1.38-.67,3.1,0,6.18.04,9.25.11,3.06.07,6.29.11,9.69.11,4.87,0,9.5-.04,13.9-.11,4.39-.07,8.8-.11,13.23-.11.59,0,1.09.22,1.5.67.41.44.61,1.07.61,1.88,0,.44-.17.96-.5,1.55s-.87.89-1.61.89l-.04-.02Z"/>
  <path class="cls-2" d="m66.68,21.48c2.29,0,4.61.11,6.98.33,2.36.22,4.95.33,7.75.33,2.07,0,4.1-.11,6.09-.33,1.99-.22,3.99-.33,5.98-.33.96,0,1.61.26,1.94.77.33.52.5,1.29.5,2.33,0,.52-.04,1.85-.11,3.99-.07,2.14-.17,4.6-.28,7.37s-.2,5.67-.28,8.69c-.07,3.03-.11,5.69-.11,7.97v7.97c0,1.62.02,3.3.06,5.04.04,1.74.05,3.3.05,4.71.07,2.73.24,4.6.5,5.59.26,1,.76,1.5,1.5,1.5.44,0,.87-.04,1.27-.11.4-.07.76-.11,1.05-.11.74,0,1.29.24,1.66.72.37.48.55.98.55,1.5,0,.74-.18,1.33-.55,1.77-.37.44-.92.66-1.66.66s-1.79-.02-3.16-.06c-1.37-.04-2.86-.09-4.49-.17-1.62-.07-3.32-.13-5.09-.17-1.77-.04-3.4-.06-4.87-.06-2.58,0-5.04.08-7.36.22-2.33.15-4.63.22-6.92.22-.66,0-1.18-.18-1.55-.55-.37-.37-.55-1-.55-1.88,0-.74.18-1.29.55-1.66.37-.37.89-.55,1.55-.55.22,0,.52.04.89.11.37.08.74.11,1.11.11.59,0,.96-.44,1.11-1.33.15-.89.26-1.92.33-3.1.15-4.28.29-8.79.44-13.51.15-4.72.22-9.41.22-14.06,0-2.36-.04-4.8-.11-7.31s-.15-4.83-.22-6.98c-.07-2.07-.32-3.43-.72-4.1-.41-.67-1.09-1-2.05-1-.52,0-.94.02-1.27.06s-.57.06-.72.06c-.74,0-1.24-.26-1.5-.78s-.39-1.03-.39-1.55c0-.59.13-1.12.39-1.61.26-.48.76-.72,1.5-.72h0ZM82.74,0c3.77,0,7.09.76,9.97,2.27,2.88,1.51,4.32,4.04,4.32,7.59,0,3.03-1.05,5.17-3.16,6.42-2.1,1.26-5.81,1.92-11.13,1.99-5.32.07-9.03-.55-11.13-1.88s-3.16-3.51-3.16-6.53c0-3.47,1.44-5.98,4.32-7.53s6.2-2.33,9.97-2.33Z"/>
  <path class="cls-4" d="m158.37,81.84c-4.36,0-8.77-.07-13.23-.22-4.47-.15-8.91-.22-13.34-.22-2.36,0-4.91.02-7.64.06s-5.37.09-7.92.17c-2.55.07-4.86.13-6.92.17-2.07.04-3.66.06-4.76.06-.59,0-1.05-.2-1.38-.61-.33-.4-.5-.9-.5-1.5,0-.52.09-1.03.28-1.55.18-.52.5-1.03.94-1.55.96-1.25,2.49-3.38,4.6-6.37,2.1-2.99,4.5-6.51,7.2-10.58,2.69-4.06,5.54-8.53,8.53-13.4s5.81-9.86,8.47-14.95c.37-.66.63-1.25.78-1.77s.22-.92.22-1.22c0-.81-.26-1.4-.77-1.77-.52-.37-1.18-.55-1.99-.55-2.95,0-5.48,1.31-7.59,3.93-2.1,2.62-4.02,5.46-5.76,8.53-1.74,3.06-3.42,5.91-5.04,8.53s-3.47,3.93-5.54,3.93c-.59,0-1.09-.15-1.5-.44s-.61-.85-.61-1.66c0-.96.13-2.44.39-4.43s.39-4.58.39-7.75c0-2.73-.11-5.09-.33-7.09s-.33-3.47-.33-4.43c0-1.03.29-1.9.89-2.6.59-.7,1.51-1.05,2.77-1.05,4.21,0,8.43.07,12.68.22,4.24.15,8.47.22,12.68.22,2.29,0,4.76-.02,7.42-.05,2.66-.04,5.2-.09,7.64-.17,2.44-.07,4.67-.13,6.7-.17s3.56-.05,4.6-.05c.67,0,1.16.2,1.5.61.33.41.5.94.5,1.61,0,.44-.13.98-.39,1.61-.26.63-.79,1.57-1.61,2.82-.44.52-1.72,2.42-3.82,5.7-2.1,3.29-4.52,7.13-7.25,11.52-2.73,4.39-5.54,8.99-8.42,13.79-2.88,4.8-5.28,9.01-7.2,12.62-.44.81-.74,1.5-.89,2.05s-.22,1.02-.22,1.38c0,.74.26,1.27.78,1.61.52.33,1.25.5,2.21.5,2.95,0,5.54-1.31,7.75-3.93s4.25-5.46,6.09-8.53c1.84-3.06,3.56-5.91,5.15-8.53s3.23-3.93,4.93-3.93c.67,0,1.2.13,1.61.39s.61.83.61,1.72c0,.74-.09,1.99-.28,3.76-.19,1.77-.28,4.25-.28,7.42,0,3.62.13,6.41.39,8.36.26,1.96.39,3.27.39,3.93,0,1.18-.3,2.12-.89,2.82s-1.48,1.05-2.66,1.05l-.03-.02Z"/>
  <path class="cls-5" d="m225.59,56.15c0,9.67-2.09,16.65-6.26,20.93s-11.31,6.42-21.43,6.42c-4.06,0-7.96-.48-11.68-1.44-3.73-.96-7-2.6-9.8-4.93-2.81-2.33-5.06-5.44-6.76-9.36-1.7-3.91-2.55-8.82-2.55-14.73s.79-11.22,2.38-15.5c1.59-4.28,3.77-7.71,6.53-10.3,2.77-2.58,6.09-4.47,9.97-5.65,3.88-1.18,8.07-1.77,12.57-1.77,5.09,0,9.34.55,12.74,1.66,3.4,1.11,6.11,2.58,8.14,4.43,2.03,1.85,3.47,4.02,4.32,6.53s1.27,5.17,1.27,7.97c0,2.07-.3,3.95-.89,5.65-.59,1.7-1.72,3.14-3.38,4.32s-3.99,2.1-6.98,2.77c-2.99.66-6.85,1-11.57,1-3.4,0-5.98.32-7.75.94-1.77.63-2.66,1.9-2.66,3.82,0,2.29,1.09,4.08,3.27,5.37s5.55,1.94,10.13,1.94c2.21,0,4.36-.18,6.42-.55,2.07-.37,3.86-.94,5.37-1.72,1.51-.77,2.73-1.81,3.65-3.1.92-1.29,1.38-2.86,1.38-4.71,0-.74.18-1.27.55-1.61.37-.33.77-.5,1.22-.5.52,0,.94.17,1.27.5s.5.87.5,1.61h.03Zm-26.91-31.66c-2.88,0-4.91,1.46-6.09,4.37-1.18,2.92-1.77,7.55-1.77,13.9,0,1.18.04,2.25.11,3.21.07.96.15,1.7.22,2.21.22.89.63,1.48,1.22,1.77.59.3,1.25.44,1.99.44s1.7-.18,2.88-.55,2.29-1.14,3.32-2.33c1.03-1.18,1.94-2.86,2.71-5.04.78-2.18,1.16-5.08,1.16-8.69,0-3.1-.44-5.43-1.33-6.98-.89-1.55-2.36-2.33-4.43-2.33v.02Z"/>
  <path class="cls-3" d="m268.12,60.36c0,7.75-1.24,13.46-3.71,17.11s-6.81,5.48-13.01,5.48-10.74-1.4-13.4-4.21-3.99-7.53-3.99-14.18c0-2.51.09-5.76.28-9.75.18-3.99.28-7.86.28-11.63,0-2.07-.02-4.19-.06-6.37s-.09-4.52-.17-7.03c-.07-1.33-.33-2.31-.77-2.93-.44-.63-1.04-.94-1.77-.94-.59,0-1.11.04-1.55.11-.44.07-.77.11-1,.11-.67,0-1.11-.26-1.33-.78s-.33-1.03-.33-1.55.13-1.01.39-1.5c.26-.48.76-.76,1.5-.83,4.43-.44,8.88-1.92,13.34-4.43,4.47-2.51,7.99-5.32,10.58-8.42.44-.52.87-.89,1.27-1.11.4-.22.87-.33,1.38-.33s.98.17,1.38.5.61.76.61,1.27c0,.59-.05,1.7-.17,3.32-.11,1.62-.17,3.69-.17,6.2,0,1.4.35,2.29,1.05,2.66.7.37,1.72.55,3.04.55.52,0,1.37-.04,2.55-.11,1.18-.07,2.18-.11,2.99-.11.74,0,1.29.26,1.66.77.37.52.55,1.07.55,1.66,0,.67-.18,1.26-.55,1.77-.37.52-.92.78-1.66.78-1.11,0-2.33-.06-3.65-.17-1.33-.11-2.47-.17-3.43-.17-1.18,0-1.99.28-2.44.83-.44.55-.67,1.31-.67,2.27-.07,5.76-.13,11.37-.17,16.83s.02,10.08.17,13.84c.07,3.25.5,5.32,1.27,6.2.78.89,1.68,1.33,2.71,1.33,1.18,0,1.99-.54,2.44-1.61.44-1.07.66-2.16.66-3.27,0-1.25-.31-2.62-.94-4.1s-.94-2.92-.94-4.32c0-.89.22-1.57.67-2.05.44-.48,1.03-.72,1.77-.72,1.11,0,1.94.59,2.49,1.77s.83,3.58.83,7.2l.02.06Z"/>
  <path class="cls-1" d="m301.01,72.21c.07,1.85.33,3.17.78,3.99.44.81,1.14,1.22,2.1,1.22.29,0,.72-.02,1.27-.06s.9-.06,1.05-.06c.67,0,1.18.24,1.55.72s.55.98.55,1.5-.19,1.03-.55,1.55c-.37.52-.89.78-1.55.78-2.07-.07-4.76-.13-8.08-.17-3.32-.04-6.57-.06-9.75-.06-2.51,0-5.22.04-8.14.11-2.92.07-5.26.11-7.03.11-.66,0-1.15-.26-1.44-.78-.3-.52-.44-1.03-.44-1.55s.15-1.01.44-1.5c.29-.48.78-.72,1.44-.72.07,0,.35.02.83.06.48.04.79.06.94.06.81,0,1.33-.5,1.55-1.5s.37-2.23.44-3.71c.07-4.65.15-9.12.22-13.4s.11-8.42.11-12.4c0-4.87-.05-9.69-.17-14.45-.11-4.76-.24-9.58-.39-14.45-.07-1.99-.28-3.36-.61-4.1-.33-.74-1.09-1.11-2.27-1.11-.3,0-.74.04-1.33.11-.59.07-1.04.11-1.33.11-.74,0-1.27-.2-1.61-.61-.33-.4-.5-.98-.5-1.72,0-.67.2-1.24.61-1.72.41-.48.98-.72,1.72-.72,5.83,0,10.89-.52,15.17-1.55s7.9-1.55,10.85-1.55c1.48,0,2.45.32,2.93.94.48.63.72,1.68.72,3.16s-.22,3.42-.67,5.59c-.44,2.18-.92,4.52-1.44,7.03s-1,5.19-1.44,8.03-.66,5.7-.66,8.58c0,.52.15.9.44,1.16s.7.39,1.22.39c.37,0,.68-.15.94-.44s.42-.67.5-1.11c.52-6.27,2.23-10.85,5.15-13.73,2.92-2.88,7.59-4.32,14.01-4.32,7.01,0,11.78,1.83,14.29,5.48,2.51,3.66,3.77,9.14,3.77,16.45,0,1.92-.06,4.21-.17,6.87-.11,2.66-.26,5.35-.44,8.08-.18,2.73-.33,5.35-.44,7.86-.11,2.51-.17,4.61-.17,6.31,0,2.14.28,3.76.83,4.87s1.53,1.66,2.93,1.66c.15,0,.41-.02.78-.05.37-.04.59-.06.67-.06.66,0,1.14.24,1.44.72.29.48.44,1.02.44,1.61,0,.52-.15,1-.44,1.44-.3.44-.78.66-1.44.66-1.85-.07-3.91-.18-6.2-.33s-4.58-.22-6.87-.22c-1.62,0-3.3.07-5.04.22-1.74.15-3.53.26-5.37.33-2.07,0-3.47-.81-4.21-2.44-.74-1.62-1.11-4.36-1.11-8.2,0-2.44.06-5.04.17-7.81.11-2.77.2-5.5.28-8.19.07-2.69.17-5.28.28-7.75s.17-4.63.17-6.48-.37-3.49-1.11-4.71-1.96-1.83-3.65-1.83c-2.07,0-3.69.9-4.87,2.71s-1.92,5.37-2.21,10.69c-.22,2.73-.37,5.65-.44,8.75s-.11,6.13-.11,9.08v3.43c0,1.11.04,2.14.11,3.1v.04Z"/>
</svg>