<?xml version="1.0" encoding="UTF-8"?>
<svg id="Capa_1" data-name="Capa 1" xmlns="http://www.w3.org/2000/svg" viewBox="0 0 429.37 79.84">
  <defs>
    <style>
      .cls-1 {
        fill: #ffb2aa;
      }

      .cls-2 {
        fill: #f4b645;
      }

      .cls-3 {
        fill: #35bcaf;
      }

      .cls-4 {
        fill: #ef7742;
      }

      .cls-5 {
        fill: #f4d0c2;
      }
    </style>
  </defs>
  <path class="cls-3" d="m4.89,76.72c0,.66-.22,1.18-.66,1.55s-1,.55-1.66.55-1.24-.18-1.72-.55-.72-.89-.72-1.55.04-1.55.11-2.66.17-2.31.28-3.6.2-2.64.28-4.04c.07-1.4.11-2.66.11-3.76,0-2.29-.13-4.28-.39-5.98-.26-1.7-.39-3.1-.39-4.21,0-.96.22-1.73.66-2.33.44-.59,1.29-.89,2.55-.89,2.36,0,4.72,1.33,7.09,3.99,2.36,2.66,4.78,5.59,7.25,8.8,2.47,3.21,5.11,6.15,7.92,8.8,2.8,2.66,5.83,3.99,9.08,3.99,1.84,0,3.47-.52,4.87-1.55,1.4-1.03,2.1-2.69,2.1-4.98,0-2.58-1.15-4.91-3.43-6.98-2.29-2.07-6.61-4.13-12.96-6.2-7.97-2.58-13.99-5.94-18.05-10.08-4.06-4.13-6.09-9.41-6.09-15.84,0-3.03.52-5.92,1.55-8.69s2.64-5.17,4.82-7.2,4.96-3.64,8.36-4.82,7.49-1.77,12.29-1.77c2.95,0,5.59.35,7.92,1.05,2.33.7,4.41,1.46,6.26,2.27,1.84.81,3.45,1.57,4.82,2.27,1.37.7,2.6,1.05,3.71,1.05.96,0,1.75-.2,2.38-.61.63-.41.94-.98.94-1.72,0-.52-.04-.96-.11-1.33s-.11-.74-.11-1.11c0-.74.22-1.31.66-1.72.44-.4.96-.61,1.55-.61.74,0,1.29.22,1.66.66s.55,1.18.55,2.21c0,2.07-.07,4.14-.22,6.2-.15,2.07-.22,4.32-.22,6.75,0,1.48.06,3.14.17,4.98.11,1.85.17,3.25.17,4.21s-.24,1.72-.72,2.27-1.2.83-2.16.83c-2.66,0-5.08-1.2-7.25-3.6-2.18-2.4-4.34-5.04-6.48-7.92s-4.36-5.52-6.64-7.92c-2.29-2.4-4.87-3.6-7.75-3.6-2.14,0-3.88.55-5.21,1.66s-1.99,2.66-1.99,4.65.92,4.08,2.77,6.04c1.84,1.96,5.68,3.97,11.52,6.04,8.86,3.18,15.56,6.79,20.1,10.85s6.81,9.78,6.81,17.17c0,3.84-.65,7.16-1.94,9.97s-3.1,5.09-5.43,6.87c-2.33,1.77-5.11,3.08-8.36,3.93s-6.79,1.27-10.63,1.27c-3.62,0-6.75-.46-9.41-1.38s-5-1.92-7.03-2.99-3.82-2.07-5.37-2.99-3.03-1.38-4.43-1.38-2.33.3-2.99.89-1,1.37-1,2.33c0,.3.04.68.11,1.16s.11.9.11,1.27v.03Z"/>
  <path class="cls-2" d="m97.03,16.7c5.39,0,9.76.48,13.12,1.44s5.96,2.33,7.81,4.1c1.84,1.77,3.08,3.91,3.71,6.42s.94,5.28.94,8.31c0,2.14-.02,4.3-.06,6.48-.04,2.18-.09,4.21-.17,6.09-.07,1.88-.13,3.58-.17,5.09s-.06,2.64-.06,3.38c0,1.7.22,2.99.67,3.88.44.89,1.22,1.33,2.33,1.33s1.9-.42,2.38-1.27c.48-.85.72-1.94.72-3.27,0-1.18-.26-2.66-.78-4.43s-.77-3.17-.77-4.21c0-.74.18-1.35.55-1.83.37-.48.92-.72,1.66-.72,1.18,0,1.96.7,2.33,2.1.37,1.4.55,4.1.55,8.08,0,8.12-1.02,13.75-3.04,16.89-2.03,3.14-5.92,4.71-11.68,4.71-2.73,0-4.93-.39-6.59-1.16s-2.95-1.79-3.88-3.04c-.92-1.25-1.55-2.73-1.88-4.43s-.61-3.47-.83-5.32c-.07-.74-.26-1.29-.55-1.66-.3-.37-.67-.55-1.11-.55-.52,0-.91.19-1.16.55-.26.37-.43.92-.5,1.66-.08,1.7-.5,3.4-1.27,5.09-.78,1.7-1.92,3.21-3.43,4.54-1.51,1.33-3.45,2.4-5.81,3.21s-5.17,1.22-8.42,1.22c-5.98,0-10.26-1.44-12.85-4.32-2.58-2.88-3.88-6.57-3.88-11.08,0-3.03.55-5.54,1.66-7.53s2.62-3.6,4.54-4.82c1.92-1.22,4.13-2.14,6.64-2.77s5.17-1.09,7.97-1.38c3.47-.37,6.26-.89,8.36-1.55,2.1-.67,3.69-1.55,4.76-2.66,1.07-1.11,1.77-2.49,2.1-4.15s.5-3.67.5-6.04c0-4.43-1.18-7.46-3.54-9.08s-5.72-2.44-10.08-2.44c-1.55,0-2.55.22-2.99.67s-.66.96-.66,1.55c0,.37.18.76.55,1.16.37.41.92.65,1.66.72,2.36.37,4.12,1.31,5.26,2.82s1.72,3.45,1.72,5.81c0,3.62-1.27,6.26-3.82,7.92s-5.78,2.49-9.69,2.49-7.14-.89-9.47-2.66-3.49-4.72-3.49-8.86c0-4.58,2.36-8.47,7.09-11.68,4.72-3.21,12.4-4.82,23.04-4.82v.02Zm2.11,31.67c-3.03,0-5.8.85-8.31,2.55-2.51,1.7-3.76,3.91-3.76,6.64,0,2.07.57,3.49,1.72,4.26,1.14.78,2.45,1.16,3.93,1.16,2.51,0,4.67-1,6.48-2.99s2.71-4.58,2.71-7.75c0-1.25-.2-2.21-.61-2.88-.41-.66-1.13-1-2.16-1h0Z"/>
  <path class="cls-4" d="m134.35,78.16c-.59,0-1.04-.24-1.33-.72-.3-.48-.44-.98-.44-1.5,0-.59.15-1.12.44-1.61.29-.48.74-.72,1.33-.72.07,0,.28.02.61.06s.68.06,1.05.06c.89,0,1.46-.48,1.72-1.44s.42-2.36.5-4.21c.07-4.58.15-9.14.22-13.68s.11-9.1.11-13.68c0-4.21-.04-8.49-.11-12.85-.07-4.36-.15-8.64-.22-12.85-.07-2.29-.28-3.95-.61-4.98s-1.09-1.55-2.27-1.55c-.37,0-.91.06-1.61.17-.7.11-1.2.17-1.5.17-.59,0-1.05-.2-1.38-.61-.33-.4-.5-.98-.5-1.72,0-.89.2-1.51.61-1.88s.91-.55,1.5-.55c6.27,0,11.55-.52,15.84-1.55,4.28-1.03,8.16-1.55,11.63-1.55,1.18,0,1.97.3,2.38.89.41.59.61,1.4.61,2.44,0,2.36-.15,6.72-.44,13.07-.3,6.35-.44,14.1-.44,23.26v7.75c0,2.73.02,5.39.05,7.97.04,2.58.07,5.04.11,7.36.04,2.33.09,4.3.17,5.92.07,1.4.24,2.44.5,3.1.26.67.76,1,1.5,1,.29,0,.61-.04.94-.11s.57-.11.72-.11c.52,0,1,.2,1.44.61s.67.98.67,1.72c0,.66-.17,1.22-.5,1.66s-.87.66-1.61.66c-.66,0-1.66-.02-2.99-.06s-2.81-.05-4.43-.05-3.29-.02-4.98-.06c-1.7-.04-3.25-.06-4.65-.06-3.17,0-6.17.04-8.97.11-2.81.07-4.69.11-5.65.11h-.02Z"/>
  <path class="cls-5" d="m194.15,44.05c0,7.09,1.57,12.37,4.71,15.84,3.14,3.47,7.81,5.21,14.01,5.21,4.43,0,7.51-.68,9.25-2.05,1.73-1.37,2.6-2.75,2.6-4.15,0-.81-.09-1.62-.28-2.44-.19-.81-.28-1.48-.28-1.99,0-.67.17-1.25.5-1.77s.98-.77,1.94-.77,1.64.3,2.05.89c.41.59.61,1.48.61,2.66,0,3.62-.43,6.92-1.27,9.91-.85,2.99-2.29,5.56-4.32,7.7s-4.76,3.8-8.2,4.98c-3.43,1.18-7.7,1.77-12.79,1.77-4.43,0-8.6-.44-12.51-1.33-3.91-.89-7.29-2.51-10.13-4.87-2.84-2.36-5.08-5.65-6.7-9.86-1.62-4.21-2.44-9.63-2.44-16.28,0-11.15,2.73-19.16,8.2-24.03,5.46-4.87,13.51-7.31,24.14-7.31,5.02,0,9.21.5,12.57,1.5,3.36,1,6.05,2.33,8.08,3.99s3.47,3.64,4.32,5.92c.85,2.29,1.27,4.73,1.27,7.31,0,1.85-.24,3.67-.72,5.48s-1.22,3.43-2.21,4.87c-1,1.44-2.31,2.58-3.93,3.43-1.62.85-3.58,1.27-5.87,1.27-4.36,0-7.51-1.03-9.47-3.1-1.96-2.07-2.94-4.65-2.94-7.75,0-3.32.74-5.89,2.21-7.7,1.48-1.81,3.17-3.23,5.09-4.26.96-.52,1.72-1.07,2.27-1.66s.83-1.22.83-1.88c0-.81-.54-1.5-1.61-2.05s-2.86-.83-5.37-.83c-1.62,0-3.27.26-4.93.78-1.66.52-3.12,1.59-4.37,3.21-1.26,1.62-2.29,3.99-3.1,7.09-.81,3.1-1.22,7.2-1.22,12.29v-.02Z"/>
  <path class="cls-2" d="m292.82,52.47c0,9.67-2.09,16.65-6.26,20.93-4.17,4.28-11.31,6.42-21.43,6.42-4.06,0-7.96-.48-11.68-1.44-3.73-.96-7-2.6-9.8-4.93-2.81-2.33-5.06-5.44-6.76-9.36-1.7-3.91-2.55-8.82-2.55-14.73s.79-11.22,2.38-15.5,3.77-7.71,6.53-10.3c2.77-2.58,6.09-4.47,9.97-5.65s8.07-1.77,12.57-1.77c5.09,0,9.34.55,12.74,1.66,3.4,1.11,6.11,2.58,8.14,4.43,2.03,1.85,3.47,4.02,4.32,6.53s1.27,5.17,1.27,7.97c0,2.07-.3,3.95-.89,5.65-.59,1.7-1.72,3.14-3.38,4.32s-3.99,2.1-6.98,2.77c-2.99.66-6.85,1-11.57,1-3.4,0-5.98.32-7.75.94-1.77.63-2.66,1.9-2.66,3.82,0,2.29,1.09,4.08,3.27,5.37s5.55,1.94,10.13,1.94c2.21,0,4.36-.18,6.42-.55,2.07-.37,3.86-.94,5.37-1.72,1.51-.77,2.73-1.81,3.65-3.1.92-1.29,1.38-2.86,1.38-4.71,0-.74.18-1.27.55-1.61.37-.33.77-.5,1.22-.5.52,0,.94.17,1.27.5s.5.87.5,1.61h.03Zm-26.91-31.66c-2.88,0-4.91,1.46-6.09,4.37-1.18,2.92-1.77,7.55-1.77,13.9,0,1.18.04,2.25.11,3.21.07.96.15,1.7.22,2.21.22.89.63,1.48,1.22,1.77.59.3,1.25.44,1.99.44s1.7-.18,2.88-.55,2.29-1.14,3.32-2.33c1.03-1.18,1.94-2.86,2.71-5.04.78-2.18,1.16-5.08,1.16-8.69,0-3.1-.44-5.43-1.33-6.98-.89-1.55-2.36-2.33-4.43-2.33v.02Z"/>
  <path class="cls-3" d="m362.04,78.16c-.89,0-2.47-.06-4.76-.17s-4.28-.17-5.98-.17-3.19.05-4.71.17c-1.51.11-3.08.17-4.71.17-.89,0-1.59-.2-2.1-.61-.52-.4-.89-1.2-1.11-2.38-.22-1.18-.37-2.92-.44-5.21-.08-2.29-.11-5.28-.11-8.97,0-.52-.13-.9-.39-1.16-.26-.26-.61-.39-1.05-.39-.3,0-.59.09-.89.28-.3.19-.48.5-.55.94-1.18,5.83-3.06,10.39-5.65,13.68-2.58,3.29-6.72,4.93-12.4,4.93-7.38.07-12.4-2.44-15.06-7.53s-3.99-12.14-3.99-21.15c0-6.2.65-11.44,1.94-15.73,1.29-4.28,3.05-7.71,5.26-10.3,2.21-2.58,4.87-4.43,7.97-5.54s6.42-1.66,9.97-1.66c2.73,0,4.76.15,6.09.44,1.33.3,2.55.44,3.66.44.74,0,1.22-.2,1.44-.61.22-.41.33-1.01.33-1.83,0-3.03-.28-5.02-.83-5.98-.55-.96-1.5-1.44-2.82-1.44-.52,0-1.11.06-1.77.17-.66.11-1.26.17-1.77.17-.74,0-1.22-.28-1.44-.83s-.33-1.09-.33-1.61c0-.67.2-1.22.61-1.66.41-.44.98-.67,1.72-.67,2.07,0,4.5-.15,7.31-.44,2.8-.29,5.52-.61,8.14-.94,2.62-.33,5.02-.65,7.2-.94,2.18-.29,3.71-.44,4.6-.44.96,0,1.64.26,2.05.78.41.52.61,1.37.61,2.55v7.97c0,2.95-.02,6.02-.06,9.19s-.07,6.44-.11,9.8c-.04,3.36-.06,6.59-.06,9.69,0,4.87.02,9.56.06,14.06s.09,8.53.17,12.07c.07,2.29.46,3.91,1.16,4.87s1.64,1.44,2.82,1.44c.74,0,1.27.24,1.61.72.33.48.5,1.02.5,1.61,0,.52-.17,1.02-.5,1.5s-.87.72-1.61.72h-.02Zm-40.64-30.01c0,3.1.13,5.63.39,7.59s.63,3.47,1.11,4.54c.48,1.07,1.09,1.79,1.83,2.16s1.55.55,2.44.55c2.95,0,4.89-1.59,5.81-4.76.92-3.17,1.38-6.98,1.38-11.41v-16.72c0-2.66-.5-4.6-1.49-5.81-1-1.22-2.38-1.83-4.15-1.83-1.26,0-2.34.41-3.27,1.22-.92.81-1.68,2.2-2.27,4.15-.59,1.96-1.04,4.58-1.33,7.86-.3,3.29-.44,7.44-.44,12.46h-.01Z"/>
  <path class="cls-1" d="m429.37,50.92c0,4.21-.55,8.05-1.66,11.52-1.11,3.47-2.9,6.46-5.37,8.97-2.47,2.51-5.7,4.45-9.69,5.81-3.99,1.37-8.82,2.05-14.51,2.05-11.37,0-19.42-2.56-24.14-7.7-4.73-5.13-7.09-12.02-7.09-20.65,0-6.27.78-11.61,2.33-16s3.69-7.94,6.42-10.63,6.02-4.67,9.86-5.92,8.05-1.88,12.62-1.88,8.79.65,12.62,1.94c3.84,1.29,7.14,3.32,9.91,6.09s4.91,6.33,6.42,10.69c1.51,4.36,2.27,9.6,2.27,15.73v-.02Zm-24.57-2.44c0-6.05-.15-10.91-.44-14.56-.3-3.66-.7-6.44-1.22-8.36-.52-1.92-1.18-3.19-1.99-3.82s-1.74-.94-2.77-.94c-1.11,0-2.07.33-2.88,1s-1.51,1.98-2.1,3.93c-.59,1.96-1.04,4.76-1.33,8.42-.3,3.66-.44,8.44-.44,14.34,0,8.93.55,15.03,1.66,18.27,1.11,3.25,2.8,4.87,5.09,4.87,1.11,0,2.07-.33,2.88-1s1.48-1.84,1.99-3.54c.52-1.7.9-4.06,1.16-7.09s.39-6.87.39-11.52h0Z"/>
</svg>