<?xml version="1.0" encoding="UTF-8"?>
<svg id="Capa_1" data-name="Capa 1" xmlns="http://www.w3.org/2000/svg" viewBox="0 0 72.79 33.23">
  <defs>
    <style>
      .cls-1 {
        fill: #f4eeed;
      }
    </style>
  </defs>
  <path class="cls-1" d="m1.96,26.85c0,.25-.08.45-.25.59-.17.14-.38.21-.63.21s-.47-.07-.65-.21c-.18-.14-.27-.33-.27-.59s0-.59.04-1c.03-.42.06-.87.1-1.36.04-.49.08-1,.11-1.53s.04-1,.04-1.42c0-.86-.05-1.62-.15-2.26s-.15-1.17-.15-1.59c0-.36.08-.66.25-.88s.49-.33.96-.33c.89,0,1.79.5,2.68,1.51.89,1,1.81,2.11,2.74,3.33s1.93,2.32,2.99,3.33c1.06,1,2.2,1.51,3.43,1.51.7,0,1.31-.19,1.84-.59.53-.39.8-1.02.8-1.88,0-.98-.43-1.86-1.3-2.64-.87-.78-2.5-1.56-4.9-2.34-3.01-.98-5.29-2.25-6.82-3.81S.52,11.34.52,8.91c0-1.14.2-2.24.59-3.29s1-1.95,1.82-2.72,1.88-1.37,3.16-1.82,2.83-.67,4.65-.67c1.12,0,2.11.13,2.99.4.88.26,1.67.55,2.37.86s1.3.59,1.82.86.98.4,1.4.4c.36,0,.66-.08.9-.23s.36-.37.36-.65c0-.2,0-.36-.04-.5s-.04-.28-.04-.42c0-.28.08-.5.25-.65s.36-.23.59-.23c.28,0,.49.08.63.25s.21.45.21.84c0,.78-.03,1.56-.08,2.34-.06.78-.08,1.63-.08,2.55,0,.56.02,1.19.06,1.88.04.7.06,1.23.06,1.59s-.09.65-.27.86c-.18.21-.45.31-.82.31-1,0-1.92-.45-2.74-1.36-.82-.91-1.64-1.9-2.45-2.99s-1.65-2.08-2.51-2.99c-.87-.91-1.84-1.36-2.93-1.36-.81,0-1.46.21-1.97.63-.5.42-.75,1-.75,1.76s.35,1.54,1.05,2.28,2.15,1.5,4.35,2.28c3.35,1.2,5.88,2.57,7.6,4.1s2.57,3.7,2.57,6.49c0,1.45-.24,2.71-.73,3.77-.49,1.06-1.17,1.93-2.05,2.6s-1.93,1.17-3.16,1.49c-1.23.32-2.57.48-4.02.48-1.37,0-2.55-.17-3.56-.52-1-.35-1.89-.72-2.66-1.13-.77-.4-1.44-.78-2.03-1.13s-1.14-.52-1.67-.52c-.5,0-.88.11-1.13.33s-.38.52-.38.88c0,.11,0,.26.04.44s.04.34.04.48v-.03Z"/>
  <path class="cls-1" d="m48.54,17.1c0,1.59-.21,3.04-.63,4.35s-1.09,2.44-2.03,3.39-2.16,1.68-3.66,2.2c-1.51.52-3.33.77-5.48.77-4.3,0-7.34-.97-9.12-2.91-1.79-1.94-2.68-4.54-2.68-7.81,0-2.37.29-4.39.88-6.05.59-1.66,1.39-3,2.43-4.02,1.03-1.02,2.27-1.76,3.72-2.24,1.45-.47,3.04-.71,4.77-.71s3.32.24,4.77.73c1.45.49,2.7,1.25,3.75,2.3s1.86,2.39,2.43,4.04.86,3.63.86,5.94v.02Zm-9.3-.92c0-2.29-.06-4.12-.17-5.5s-.26-2.43-.46-3.16-.45-1.21-.75-1.44c-.31-.24-.66-.36-1.05-.36-.42,0-.78.13-1.09.38s-.57.75-.79,1.49c-.22.74-.39,1.8-.5,3.18s-.17,3.19-.17,5.42c0,3.38.21,5.68.63,6.91s1.06,1.84,1.92,1.84c.42,0,.78-.12,1.09-.38.31-.25.56-.7.75-1.34.19-.64.34-1.53.44-2.68.1-1.14.15-2.59.15-4.35h0Z"/>
  <path class="cls-1" d="m49.29,6.51c-.22-.19-.38-.38-.46-.56s-.13-.38-.13-.61.07-.4.21-.54c.14-.14.31-.21.5-.21.64,0,1.51.04,2.59.13,1.09.08,2.32.12,3.68.12.98,0,1.96-.03,2.95-.1.99-.07,1.97-.12,2.95-.15.22,0,.4.08.54.23s.21.36.21.61c0,.2-.07.38-.21.54-.14.17-.32.25-.54.25-.45,0-.74.11-.88.33s-.21.63-.21,1.21c0,.78.07,1.71.21,2.78.14,1.07.32,2.17.54,3.29s.47,2.22.75,3.31.57,2.04.88,2.85c.19.59.42,1.01.69,1.28.26.27.62.4,1.07.4.36,0,.71-.16,1.05-.48.33-.32.5-1.07.5-2.24,0-1.39-.12-2.8-.36-4.21s-.5-2.71-.79-3.91-.56-2.25-.79-3.16c-.24-.91-.36-1.58-.36-2.03,0-.28.06-.52.17-.73.11-.21.35-.31.71-.31.31,0,.84.02,1.61.06s1.47.06,2.11.06c.75,0,1.44-.02,2.05-.06s1.13-.06,1.55-.06c.22,0,.4.06.52.19.13.12.19.33.19.61,0,.17-.12.5-.36.98-.24.49-.53,1.19-.88,2.09-.35.91-.73,2.07-1.13,3.5-.41,1.42-.77,3.15-1.11,5.19-.5,2.32-1.02,4.46-1.55,6.45-.53,1.98-1.23,3.68-2.09,5.08-.87,1.41-1.98,2.52-3.35,3.33s-3.12,1.21-5.27,1.21c-2.34,0-4.01-.42-5-1.26s-1.49-1.94-1.49-3.31c0-1.28.45-2.31,1.36-3.08.91-.77,2.24-1.15,4-1.15s2.91.27,3.7.79c.8.53,1.19,1.34,1.19,2.43,0,.53-.13.96-.4,1.28s-.57.59-.9.82c-.25.17-.46.32-.63.46-.17.14-.25.35-.25.63,0,.14.06.26.17.36.11.1.26.15.46.15.56,0,1.12-.21,1.7-.63.57-.42,1.09-.93,1.57-1.53s.86-1.25,1.17-1.95c.31-.7.46-1.33.46-1.88,0-1.03-.3-1.72-.9-2.05s-1.5-.5-2.7-.5c-.89,0-1.81.04-2.74.12-.94.08-1.85.13-2.74.13-.53,0-.93-.11-1.19-.33-.27-.22-.48-.73-.65-1.51-.47-2.18-.88-4.05-1.21-5.63s-.63-2.93-.9-4.06-.54-2.09-.84-2.87c-.29-.78-.63-1.49-1.03-2.13l.03-.02Z"/>
</svg>